<svg id="Layer_1" xmlns="http://www.w3.org/2000/svg" viewBox="0 0 21.6 21.6"><style>.st0{fill:#231F20;}</style><title>Group 2</title><g id="Shipt-Assets"><g id="Group-2"><path class="st0" d="M16.5 5.6c0-.3-.2-.6-.4-.6H5.5c-.2 0-.4.3-.4.6s.2.6.4.6h10.6c.2 0 .4-.3.4-.6zM6.5 10.3h8.6c.2 0 .4-.3.4-.6s-.2-.6-.4-.6H6.5c-.2 0-.4.3-.4.6s.2.6.4.6z"/><path class="st0" d="M21.6 4.5V3c-.1-1.6-1.4-3-3.1-3H3.1c-1.7 0-3 1.3-3 3v15.5c0 1.6 1.3 3 3 3h10.7c.2 0 .4-.3.4-.5s-.2-.5-.4-.5H3.3c-1.1 0-2-.9-2-2V3.2c0-1.1.9-2 2-2h15c1.1 0 2 .9 2 2v10.5c0 .2.3.4.6.4s.6-.2.6-.4l.1-9.2z"/><path class="st0" d="M21.2 17.1h-2.8v-2.6c0-.2-.3-.4-.6-.4s-.6.2-.6.4v2.6h-2.6c-.2 0-.4.3-.4.6s.2.6.4.6h2.6v2.8c0 .2.3.4.6.4s.6-.2.6-.4v-2.8h2.8c.2 0 .4-.3.4-.6s-.2-.6-.4-.6z"/></g></g></svg>