<svg id="Layer_1" data-name="Layer 1" xmlns="http://www.w3.org/2000/svg" viewBox="0 0 25 25"><defs><style>.cls-1,.cls-2{fill:#5a5a5a;}.cls-1{fill-rule:evenodd;}</style></defs><title>icons</title><path class="cls-1" d="M2.14,10.69H22.86V21.24a1.53,1.53,0,0,1-1.56,1.52H3.71a1.53,1.53,0,0,1-1.56-1.52Zm15.54-5a1,1,0,1,1-1,1A1,1,0,0,1,17.69,5.67Zm-10.36,0a1,1,0,1,1-1,1A1,1,0,0,1,7.33,5.67Zm2.06-3a.5.5,0,1,0,0,1h6.21a.5.5,0,1,0,0-1Zm-5.69,0a2.57,2.57,0,0,0-2.6,2.52V21.24a2.57,2.57,0,0,0,2.6,2.52H21.29a2.57,2.57,0,0,0,2.6-2.52V5.17a2.57,2.57,0,0,0-2.6-2.52H19.75a.53.53,0,0,0-.53.5.53.53,0,0,0,.53.5h1.55a1.53,1.53,0,0,1,1.56,1.52V9.69H2.14V5.17A1.53,1.53,0,0,1,3.71,3.66H5.25a.53.53,0,0,0,.53-.5.53.53,0,0,0-.53-.5Zm14-1.51a.51.51,0,0,0-.52.5V4.73a2.09,2.09,0,1,0,1,0V1.65A.51.51,0,0,0,17.69,1.15Zm-10.36,0a.51.51,0,0,0-.52.5V4.73A2,2,0,1,0,9.4,6.67,2,2,0,0,0,7.85,4.73V1.65A.51.51,0,0,0,7.33,1.15Z"/><path class="cls-2" d="M12.93,20.81a3.91,3.91,0,0,0-.4-7.79V12a.08.08,0,0,0-.12-.05L10.24,13.5a.07.07,0,0,0,0,.11L12.4,15.2a.08.08,0,0,0,.12-.05v-1a2.83,2.83,0,1,1-2.84,3.28.54.54,0,0,0-1.06.16,3.91,3.91,0,0,0,4.31,3.26Zm0,0"/></svg>