<svg id="Layer_1" xmlns="http://www.w3.org/2000/svg" viewBox="0 0 25 25"><style>.st0{fill:#5A5A5A;} .st1{fill-rule:evenodd;clip-rule:evenodd;fill:#5A5A5A;} .st2{fill-rule:evenodd;clip-rule:evenodd;} .st3{fill:none;stroke:#5A5A5A;stroke-width:1.3;stroke-miterlimit:10;} .st4{fill:none;stroke:#000000;stroke-width:1.2;stroke-miterlimit:10;} .st5{fill:none;stroke:#000000;stroke-width:1.3;stroke-miterlimit:10;} .st6{fill-rule:evenodd;clip-rule:evenodd;fill:#231F20;} .st7{fill:#231F20;} .st8{fill:#010101;}</style><path d="M22.6 3.9l-2.2-2.2c-.4-.4-2-1.2-3.2 0L3.7 15.1c-.1.1-.2.2-.2.3l-1.7 6c-.1.3 0 .6.2.8.2.2.6.2.8.2l6-1.7c.1-.1.2-.1.3-.2L22.6 7.1c.9-.9.9-2.3 0-3.2zM3.2 21.1l1.3-4.5 3.2 3.2-4.5 1.3zm5.6-1.8L5 15.5l8.6-8.6 3.8 3.8-8.6 8.6zM22.1 6l-3.9 3.9-3.8-3.8 4-4c.3-.3.7-.3 1 0l2.8 2.8c.3.4.2.8-.1 1.1z"/></svg>