<svg id="Layer_1" data-name="Layer 1" xmlns="http://www.w3.org/2000/svg" xmlns:xlink="http://www.w3.org/1999/xlink" viewBox="0 0 25 25"><defs><style>.cls-1,.cls-2,.cls-4{fill:#5a5a5a;}.cls-1{clip-rule:evenodd;}.cls-2{fill-rule:evenodd;}.cls-3{clip-path:url(#clip-path);}.cls-5{fill:none;stroke:#5a5a5a;stroke-miterlimit:10;stroke-width:0.83px;}</style><clipPath id="clip-path"><path class="cls-1" d="M-39,21.67a1.5,1.5,0,0,0,1.51,1.42H-26a1.51,1.51,0,0,0,1.51-1.43l.68-9.56-.36.21a2.42,2.42,0,0,1-1.25.33,2.43,2.43,0,0,1-1.25-.33l-.14-.08a1.32,1.32,0,0,0-.65-.18,1.33,1.33,0,0,0-.65.18l-.29.17a2.1,2.1,0,0,1-.82.27l-.29,0h-.25a2.09,2.09,0,0,1-.77-.25l-.07,0-.29-.17a1.32,1.32,0,0,0-.65-.18,1.33,1.33,0,0,0-.65.18l-.29.17a2.12,2.12,0,0,1-.89.28h-.4l-.32-.05h-.05a2,2,0,0,1-.53-.21l-.29-.17a1.32,1.32,0,0,0-.65-.18,1.33,1.33,0,0,0-.65.18l-.29.17a2.09,2.09,0,0,1-.8.27l-.31,0a2.13,2.13,0,0,1-1.06-.28l-.8-.35,0,0-.06,0Zm15.07-11.25a2,2,0,0,0-1.32-.78,2.24,2.24,0,0,1-.91-.52l-.33-.29-.27-.2h0a1.78,1.78,0,0,0-.48-.22h0l-.21,0c-.51,0-1.07.51-1.64,1.51a3,3,0,0,0-.27,2h.09a1.25,1.25,0,0,0,.42-.15l.29-.17a2.13,2.13,0,0,1,1.09-.3l.31,0a2.11,2.11,0,0,1,.8.27l.14.08a1.6,1.6,0,0,0,.8.22,1.56,1.56,0,0,0,.8-.21l.55-.33a.71.71,0,0,1,.23-.08A1.18,1.18,0,0,0-23.93,10.42Zm-2.63-3.36-.27-.22.18-.3a1.19,1.19,0,0,0,.17-.61,1.22,1.22,0,0,0-1.18-1.22l-.49,0,.11-.48A.94.94,0,0,0-28,4a1,1,0,0,0-.94-1l-.38,0v-.4A.68.68,0,0,0-30,1.91a.68.68,0,0,0-.46.18l-.29.25L-31,2.07a.59.59,0,0,0-.48-.16.59.59,0,0,0-.48.41.55.55,0,0,0,0,.21L-32,3h-.46a1.12,1.12,0,0,0-1.12,1l0,.27-.25.09a1.55,1.55,0,0,0-1,1.49,1.4,1.4,0,0,0,.27.8,4.28,4.28,0,0,1,.82-.51l.19-.1a.09.09,0,0,0,0-.07.23.23,0,0,0-.06-.18.86.86,0,0,1-.19-.75l0-.22a.89.89,0,0,1,1-.66l.11,0h0l1.2.26,1.17.25a.86.86,0,0,1,.67,1l0,.11,0,.11a.87.87,0,0,1-.51.61.23.23,0,0,0-.13.13s0,0,0,.08l.13.17.14.18,0,.06.11.15.05.08.09.15,0,.08c0,.06.06.12.09.18l0,.08a2,2,0,0,1,.09.28s0,0,0,0a1.8,1.8,0,0,1,0,.26s0,.07,0,.11,0,.09,0,.14l0,0,.08-.1.18-.21.09-.09.19-.18.07-.06.26-.19.08,0,.19-.09.11,0,.18-.05.11,0,.22,0h.05A2.14,2.14,0,0,1-26.31,8a.79.79,0,0,0,.06-.29A.79.79,0,0,0-26.55,7.07Zm-4.06,4-.34,0a3.17,3.17,0,0,1-1.94-.68,4.72,4.72,0,0,0-.57-.35l.11.32.08.23c.12.36.23.72.34,1.09l.27-.16a2.13,2.13,0,0,1,1.09-.3l.29,0h.07l.13,0a1.92,1.92,0,0,1,.39.13Zm-.12-3.62-.14-.18L-31,7.14a.86.86,0,0,1-.08-.6l-1.7-.37a.91.91,0,0,1,0,.15.92.92,0,0,1-.4.45l-.19.1-.17.09-.08,0-.14.08-.12.08-.13.1-.11.1-.11.12a1.52,1.52,0,0,0-.17.24c.17.38.33.76.49,1.15l.07.18a4.16,4.16,0,0,1,1.41.7,2.43,2.43,0,0,0,2,.48l.25-1.12A1.82,1.82,0,0,0-30.73,7.45Zm.16-1.64a.17.17,0,0,0,.2-.13.17.17,0,0,0-.13-.2L-32.79,5a.18.18,0,0,0-.17.13.16.16,0,0,0,0,.13.16.16,0,0,0,.11.07Zm-5.37.68c-.16-.3-.34-.67-.53-1.06-.61-1.29-1.45-3.06-2.43-3.55A.88.88,0,0,0-40,2a2.1,2.1,0,0,0-.53,1.39,27.35,27.35,0,0,0,1.31,7.47c0,.08.09.25.17.49l.69.31,0,0a1.32,1.32,0,0,0,.65.18,1.33,1.33,0,0,0,.65-.18l.29-.17a2.13,2.13,0,0,1,1.09-.3l.31,0a2.11,2.11,0,0,1,.8.27l.29.17a1.31,1.31,0,0,0,.52.16l0-.09c-.11-.38-.24-.76-.36-1.13l-.14-.41c-.11-.3-.22-.59-.33-.88L-34.76,9A24.19,24.19,0,0,0-35.94,6.49ZM-40.06,11a28.25,28.25,0,0,1-1.32-7.61,2.9,2.9,0,0,1,.76-2,1.71,1.71,0,0,1,2.1-.31c1.22.63,2.09,2.46,2.8,3.93l.12.25a2.35,2.35,0,0,1,1.29-1.62,1.94,1.94,0,0,1,1.51-1.49l0-.13a1.41,1.41,0,0,1,1.17-1,1.39,1.39,0,0,1,.87.18A1.5,1.5,0,0,1-30,1.1a1.5,1.5,0,0,1,1.46,1.15A1.82,1.82,0,0,1-27.19,4a2,2,0,0,1,1.53,2,2,2,0,0,1-.14.73,1.59,1.59,0,0,1,.36,1,1.5,1.5,0,0,1-.13.63,2.17,2.17,0,0,1,1.63-.78.41.41,0,0,1,.4.42.41.41,0,0,1-.41.39h0a1.41,1.41,0,0,0-1,.54A2.78,2.78,0,0,1-23.2,10a2,2,0,0,1,.1,1.48.71.71,0,0,1,.1.4l-.7,9.77A2.32,2.32,0,0,1-26,23.9H-37.48a2.31,2.31,0,0,1-2.32-2.18l-.71-10.13a.52.52,0,0,1,.15-.39A.52.52,0,0,1-40.06,11Z"/></clipPath></defs><title>icons</title><path class="cls-2" d="M-39,21.67a1.5,1.5,0,0,0,1.51,1.42H-26a1.51,1.51,0,0,0,1.51-1.43l.68-9.56-.36.21a2.42,2.42,0,0,1-1.25.33,2.43,2.43,0,0,1-1.25-.33l-.14-.08a1.32,1.32,0,0,0-.65-.18,1.33,1.33,0,0,0-.65.18l-.29.17a2.1,2.1,0,0,1-.82.27l-.29,0h-.25a2.09,2.09,0,0,1-.77-.25l-.07,0-.29-.17a1.32,1.32,0,0,0-.65-.18,1.33,1.33,0,0,0-.65.18l-.29.17a2.12,2.12,0,0,1-.89.28h-.4l-.32-.05h-.05a2,2,0,0,1-.53-.21l-.29-.17a1.32,1.32,0,0,0-.65-.18,1.33,1.33,0,0,0-.65.18l-.29.17a2.09,2.09,0,0,1-.8.27l-.31,0a2.13,2.13,0,0,1-1.06-.28l-.8-.35,0,0-.06,0Zm15.07-11.25a2,2,0,0,0-1.32-.78,2.24,2.24,0,0,1-.91-.52l-.33-.29-.27-.2h0a1.78,1.78,0,0,0-.48-.22h0l-.21,0c-.51,0-1.07.51-1.64,1.51a3,3,0,0,0-.27,2h.09a1.25,1.25,0,0,0,.42-.15l.29-.17a2.13,2.13,0,0,1,1.09-.3l.31,0a2.11,2.11,0,0,1,.8.27l.14.08a1.6,1.6,0,0,0,.8.22,1.56,1.56,0,0,0,.8-.21l.55-.33a.71.71,0,0,1,.23-.08A1.18,1.18,0,0,0-23.93,10.42Zm-2.63-3.36-.27-.22.18-.3a1.19,1.19,0,0,0,.17-.61,1.22,1.22,0,0,0-1.18-1.22l-.49,0,.11-.48A.94.94,0,0,0-28,4a1,1,0,0,0-.94-1l-.38,0v-.4A.68.68,0,0,0-30,1.91a.68.68,0,0,0-.46.18l-.29.25L-31,2.07a.59.59,0,0,0-.48-.16.59.59,0,0,0-.48.41.55.55,0,0,0,0,.21L-32,3h-.46a1.12,1.12,0,0,0-1.12,1l0,.27-.25.09a1.55,1.55,0,0,0-1,1.49,1.4,1.4,0,0,0,.27.8,4.28,4.28,0,0,1,.82-.51l.19-.1a.09.09,0,0,0,0-.07.23.23,0,0,0-.06-.18.86.86,0,0,1-.19-.75l0-.22a.89.89,0,0,1,1-.66l.11,0h0l1.2.26,1.17.25a.86.86,0,0,1,.67,1l0,.11,0,.11a.87.87,0,0,1-.51.61.23.23,0,0,0-.13.13s0,0,0,.08l.13.17.14.18,0,.06.11.15.05.08.09.15,0,.08c0,.06.06.12.09.18l0,.08a2,2,0,0,1,.09.28s0,0,0,0a1.8,1.8,0,0,1,0,.26s0,.07,0,.11,0,.09,0,.14l0,0,.08-.1.18-.21.09-.09.19-.18.07-.06.26-.19.08,0,.19-.09.11,0,.18-.05.11,0,.22,0h.05A2.14,2.14,0,0,1-26.31,8a.79.79,0,0,0,.06-.29A.79.79,0,0,0-26.55,7.07Zm-4.06,4-.34,0a3.17,3.17,0,0,1-1.94-.68,4.72,4.72,0,0,0-.57-.35l.11.32.08.23c.12.36.23.72.34,1.09l.27-.16a2.13,2.13,0,0,1,1.09-.3l.29,0h.07l.13,0a1.92,1.92,0,0,1,.39.13Zm-.12-3.62-.14-.18L-31,7.14a.86.86,0,0,1-.08-.6l-1.7-.37a.91.91,0,0,1,0,.15.92.92,0,0,1-.4.45l-.19.1-.17.09-.08,0-.14.08-.12.08-.13.1-.11.1-.11.12a1.52,1.52,0,0,0-.17.24c.17.38.33.76.49,1.15l.07.18a4.16,4.16,0,0,1,1.41.7,2.43,2.43,0,0,0,2,.48l.25-1.12A1.82,1.82,0,0,0-30.73,7.45Zm.16-1.64a.17.17,0,0,0,.2-.13.17.17,0,0,0-.13-.2L-32.79,5a.18.18,0,0,0-.17.13.16.16,0,0,0,0,.13.16.16,0,0,0,.11.07Zm-5.37.68c-.16-.3-.34-.67-.53-1.06-.61-1.29-1.45-3.06-2.43-3.55A.88.88,0,0,0-40,2a2.1,2.1,0,0,0-.53,1.39,27.35,27.35,0,0,0,1.31,7.47c0,.08.09.25.17.49l.69.31,0,0a1.32,1.32,0,0,0,.65.18,1.33,1.33,0,0,0,.65-.18l.29-.17a2.13,2.13,0,0,1,1.09-.3l.31,0a2.11,2.11,0,0,1,.8.27l.29.17a1.31,1.31,0,0,0,.52.16l0-.09c-.11-.38-.24-.76-.36-1.13l-.14-.41c-.11-.3-.22-.59-.33-.88L-34.76,9A24.19,24.19,0,0,0-35.94,6.49ZM-40.06,11a28.25,28.25,0,0,1-1.32-7.61,2.9,2.9,0,0,1,.76-2,1.71,1.71,0,0,1,2.1-.31c1.22.63,2.09,2.46,2.8,3.93l.12.25a2.35,2.35,0,0,1,1.29-1.62,1.94,1.94,0,0,1,1.51-1.49l0-.13a1.41,1.41,0,0,1,1.17-1,1.39,1.39,0,0,1,.87.18A1.5,1.5,0,0,1-30,1.1a1.5,1.5,0,0,1,1.46,1.15A1.82,1.82,0,0,1-27.19,4a2,2,0,0,1,1.53,2,2,2,0,0,1-.14.73,1.59,1.59,0,0,1,.36,1,1.5,1.5,0,0,1-.13.63,2.17,2.17,0,0,1,1.63-.78.41.41,0,0,1,.4.42.41.41,0,0,1-.41.39h0a1.41,1.41,0,0,0-1,.54A2.78,2.78,0,0,1-23.2,10a2,2,0,0,1,.1,1.48.71.71,0,0,1,.1.4l-.7,9.77A2.32,2.32,0,0,1-26,23.9H-37.48a2.31,2.31,0,0,1-2.32-2.18l-.71-10.13a.52.52,0,0,1,.15-.39A.52.52,0,0,1-40.06,11Z"/><g class="cls-3"><rect class="cls-4" x="-85.41" y="-240.72" width="173.55" height="544.7"/></g><path class="cls-5" d="M23.89,8a.52.52,0,0,0-.08-.28L20.73,5.86s0-.66,0-1V3.45A1.55,1.55,0,0,0,19.2,1.9h-.72a1.55,1.55,0,0,0-1.54,1.54V3.6L13.75,1.7l-.49-.29H11.62l-.49.29L1.06,7.7A.57.57,0,0,0,1,8a3.29,3.29,0,0,0,2,3V22.86a.56.56,0,0,0,.56.56H21.36a.56.56,0,0,0,.56-.56V11a.26.26,0,0,0,0-.06A3.29,3.29,0,0,0,23.89,8Z"/><path class="cls-5" d="M14,23.37H10.79V18.64a.8.8,0,0,1,.8-.8h1.63a.8.8,0,0,1,.8.8v4.72Z"/></svg>