<?xml version="1.0" encoding="utf-8"?>
<!-- Generator: Adobe Illustrator 21.1.0, SVG Export Plug-In . SVG Version: 6.00 Build 0)  -->
<svg version="1.1" id="Layer_1" xmlns="http://www.w3.org/2000/svg" xmlns:xlink="http://www.w3.org/1999/xlink" x="0px" y="0px"
	 viewBox="0 0 18 18" style="enable-background:new 0 0 18 18;" xml:space="preserve">
<style type="text/css">
	.st0{fill:none;}
	.st1{fill:#231F20;}
</style>
<path class="st0" d="M0,0h18v18H0V0z"/>
<path class="st1" d="M14.3,3.9h-2.1v-1c0-0.8-0.6-1.4-1.4-1.4H7.2c-0.8,0-1.4,0.6-1.4,1.4v1H3.6C2.4,3.9,1.3,4.8,1.5,6l2.1,8.5
	c0.4,1.4,0.9,2,2.1,2h6.6c1.2,0,1.8-0.8,2.1-2L16.5,6C16.7,4.8,15.5,3.9,14.3,3.9z M6.8,3.2c0-0.6,0.4-1,1-1h2.6c0.6,0,1,0.4,1,1
	v0.8H6.8V3.2z M15.6,6.2l-2.1,8.2c-0.2,0.8-0.6,1.3-1.4,1.3H5.8c-0.8,0-1-0.4-1.4-1.3L2.4,6.2C2.2,5.3,3,4.8,3.8,4.8h10.4
	C14.9,4.8,15.8,5.4,15.6,6.2z"/>
</svg>
