<svg id="Layer_1" xmlns="http://www.w3.org/2000/svg" viewBox="0 0 25 25"><style>.st0{fill:#5A5A5A;} .st1{fill-rule:evenodd;clip-rule:evenodd;fill:#5A5A5A;} .st2{fill-rule:evenodd;clip-rule:evenodd;} .st3{fill:none;stroke:#5A5A5A;stroke-width:1.3;stroke-miterlimit:10;} .st4{fill:none;stroke:#000000;stroke-width:1.2;stroke-miterlimit:10;} .st5{fill:none;stroke:#000000;stroke-width:1.3;stroke-miterlimit:10;} .st6{fill-rule:evenodd;clip-rule:evenodd;fill:#231F20;} .st7{fill:#231F20;} .st8{fill:#010101;}</style><path d="M20.9 2.2H4.1c-1.7 0-3 1.3-3 3v14.5c0 1.6 1.3 3 3 3h16.8c1.7 0 3-1.4 3-3V5.2c0-1.6-1.4-3-3-3zm1.8 17.4c0 1.1-.9 2-2 2H4.4c-1.1 0-2-.9-2-2V5.4c0-1.1.9-2 2-2h16.3c1.1 0 2 .9 2 2v14.2z"/><path d="M17.8 13.4H7.2c-.2 0-.4.3-.4.6s.2.6.4.6h10.6c.2 0 .4-.3.4-.6s-.2-.6-.4-.6zM16.8 17.5H8.2c-.2 0-.4.3-.4.6s.2.6.4.6h8.6c.2 0 .4-.3.4-.6s-.2-.6-.4-.6zM10.1 8.7c.1.1.2.3.2.5l-.3 1.6c-.1.5.4.8.8.6l1.4-.8c.2-.1.4-.1.5 0l1.4.8c.4.2.9-.1.8-.6l-.3-1.6c0-.2 0-.4.2-.5L16 7.6c.3-.3.1-.9-.3-.9l-1.6-.2c-.2 0-.3-.1-.4-.3L13 4.6c-.2-.4-.8-.4-1 0l-.7 1.5c-.1.2-.2.3-.4.3l-1.6.2c-.5.1-.7.6-.3 1l1.1 1.1z"/></svg>