<?xml version="1.0" encoding="UTF-8"?>
<svg width="25px" height="25px" viewBox="0 0 25 25" version="1.1" xmlns="http://www.w3.org/2000/svg" xmlns:xlink="http://www.w3.org/1999/xlink">
    <!-- Generator: Sketch 47 (45396) - http://www.bohemiancoding.com/sketch -->
    <title>gift_white</title>
    <desc>Created with Sketch.</desc>
    <defs></defs>
    <g id="Page-1" stroke="none" stroke-width="1" fill="none" fill-rule="evenodd">
        <g id="gift_white" fill-rule="nonzero" fill="#FFFFFF">
            <rect id="Rectangle-path" x="1.29632353" y="13.140625" width="22.2029412" height="11.859375"></rect>
            <path d="M13.4588235,5.95234375 C13.8132353,5.7109375 14.3551471,5.48125 14.8529412,5.26640625 C16.0125,4.77421875 17.3257353,4.21640625 17.7536765,3.06953125 C17.9735294,2.4828125 17.9257353,1.81796875 17.6154412,1.1046875 C17.2132353,0.1921875 16.6573529,0 16.2625,0 C14.9558824,0 13.5580882,2.32734375 12.4970588,4.634375 C11.4389706,2.3265625 10.0485294,0 8.74264706,0 C8.34338235,0 7.78308824,0.19296875 7.38455882,1.1046875 C7.07352941,1.81796875 7.02647059,2.4828125 7.24632353,3.06953125 C7.67426471,4.21640625 8.9875,4.77421875 10.1433824,5.26640625 C10.6411765,5.48203125 11.1867647,5.71171875 11.5411765,5.95234375 L0.230882353,5.95234375 L0.230882353,11.7742187 L1.29632353,11.7742187 L23.4992647,11.7742187 L24.3632353,11.7742187 L24.7691176,11.7742187 L24.7691176,5.95234375 L13.4588235,5.95234375 Z M16.2625,1.29453125 C16.2911765,1.29453125 16.3941176,1.38203125 16.5147059,1.65078125 C16.6794118,2.03125 16.7191176,2.346875 16.6242647,2.59921875 C16.3904412,3.22109375 15.3323529,3.67265625 14.4029412,4.06875 C14.2941176,4.11328125 14.1838235,4.16171875 14.0779412,4.2046875 C15.1022059,2.21015625 15.925,1.29453125 16.2625,1.29453125 Z M10.5977941,4.06875 C9.66470588,3.671875 8.61102941,3.22109375 8.37647059,2.59921875 C8.28455882,2.346875 8.32205882,2.03125 8.48970588,1.65078125 C8.60661765,1.38203125 8.70955882,1.29453125 8.74264706,1.29453125 C9.07132353,1.29453125 9.89852941,2.21015625 10.9198529,4.2046875 C10.8139706,4.16171875 10.7073529,4.11328125 10.5977941,4.06875 Z" id="Shape"></path>
        </g>
    </g>
</svg>