<svg id="Layer_1" xmlns="http://www.w3.org/2000/svg" viewBox="0 0 25 25"><style>.st0{fill:#5A5A5A;} .st1{fill-rule:evenodd;clip-rule:evenodd;fill:#5A5A5A;} .st2{fill-rule:evenodd;clip-rule:evenodd;} .st3{fill:none;stroke:#5A5A5A;stroke-width:1.3;stroke-miterlimit:10;} .st4{fill:none;stroke:#000000;stroke-width:1.2;stroke-miterlimit:10;} .st5{fill:none;stroke:#000000;stroke-width:1.3;stroke-miterlimit:10;} .st6{fill-rule:evenodd;clip-rule:evenodd;fill:#231F20;} .st7{fill:#231F20;} .st8{fill:#010101;}</style><path class="st6" d="M20.2 5.2h-3V3.7c0-1.1-.9-2-2-2H9.9c-1.1 0-2 .9-2 2v1.5H4.8c-1.7 0-3.4 1.2-3 3l3 12.2c.6 2 1.3 2.9 3 2.9h9.5c1.7 0 2.6-1.2 3-2.9l3-12.2c.3-1.7-1.4-3-3.1-3zM9.3 4.1c0-.8.6-1.4 1.4-1.4h3.8c.8 0 1.4.6 1.4 1.4v1.1H9.3V4.1zM22 8.4l-3 11.8c-.3 1.1-.9 1.9-2 1.9H8c-1.1 0-1.5-.6-2-1.9L3 8.4c-.3-1.2.9-2 2-2h15c1.1 0 2.3.9 2 2z"/></svg>