<svg xmlns="http://www.w3.org/2000/svg" width="18" height="18" viewBox="0 0 18 18">
  <g fill="none" fill-rule="evenodd">
    <rect width="18" height="18" fill="#FFF"/>
    <path stroke="#000" d="M16.7692308,8.92307692 C17.0769231,9.23076923 17.0769231,9.69230769 16.7692308,9.92307692 L9.84615385,16.7692308 C9.53846154,17.0769231 9.23076923,17.0769231 8.92307692,16.7692308 L1,8.92307692 L1,1.76923077 C1,1.38461538 1.30769231,1 1.76923077,1 L4.15384615,1 L8.92307692,1 L16.7692308,8.92307692 Z M5.86218462,5.83915385 C6.46298546,5.23835301 6.46298546,4.26426238 5.86218462,3.66346154 C5.26138377,3.0626607 4.28729315,3.0626607 3.68649231,3.66346154 C3.08569147,4.26426238 3.08569147,5.23835301 3.68649231,5.83915385 C4.28729315,6.43995469 5.26138377,6.43995469 5.86218462,5.83915385 Z"/>
  </g>
</svg>
