<?xml version="1.0" encoding="UTF-8"?>
<svg width="19px" height="16px" viewBox="0 0 19 16" version="1.1" xmlns="http://www.w3.org/2000/svg" xmlns:xlink="http://www.w3.org/1999/xlink">
    <!-- Generator: Sketch 47.1 (45422) - http://www.bohemiancoding.com/sketch -->
    <title>barcode-01</title>
    <desc>Created with Sketch.</desc>
    <defs></defs>
    <g id="Page-1" stroke="none" stroke-width="1" fill="none" fill-rule="evenodd">
        <g id="On-sale-off_-Category-on" transform="translate(-291.000000, -39.000000)" fill-rule="nonzero" fill="#6BB0FF">
            <g id="header" transform="translate(0.000000, 20.000000)">
                <g id="header/master">
                    <g id="Nav/Search-bar" transform="translate(54.000000, 8.000000)">
                        <g id="barcode-01" transform="translate(237.000000, 8.000000)">
                            <path d="M11.426087,3.63478261 C10.926087,3.63478261 10.426087,3.82608696 10.426087,4.0173913 L10.426087,17.9826087 C10.426087,18.173913 10.926087,18.3652174 11.426087,18.3652174 C11.926087,18.3652174 12.426087,18.173913 12.426087,17.9826087 L12.426087,4.0173913 C12.426087,3.82608696 11.926087,3.63478261 11.426087,3.63478261 Z" id="Shape"></path>
                            <path d="M7.65217391,3.63478261 C7.36521739,3.63478261 7.07826087,3.82608696 7.07826087,4.0173913 L7.07826087,17.9826087 C7.07826087,18.173913 7.36521739,18.3652174 7.65217391,18.3652174 C7.93913043,18.3652174 8.22608696,18.173913 8.22608696,17.9826087 L8.22608696,4.0173913 C8.22608696,3.82608696 7.93913043,3.63478261 7.65217391,3.63478261 Z" id="Shape"></path>
                            <path d="M4.63478261,3.63478261 C4.13478261,3.63478261 3.63478261,3.82608696 3.63478261,4.0173913 L3.63478261,17.9826087 C3.63478261,18.173913 4.13478261,18.3652174 4.63478261,18.3652174 C5.13478261,18.3652174 5.63478261,18.173913 5.63478261,17.9826087 L5.63478261,4.0173913 C5.63478261,3.82608696 5.13478261,3.63478261 4.63478261,3.63478261 Z" id="Shape"></path>
                            <path d="M14.6347826,3.63478261 C14.3478261,3.63478261 14.0608696,3.82608696 14.0608696,4.0173913 L14.0608696,17.9826087 C14.0608696,18.173913 14.3478261,18.3652174 14.6347826,18.3652174 C14.9217391,18.3652174 15.2086957,18.173913 15.2086957,17.9826087 L15.2086957,4.0173913 C15.2086957,3.82608696 14.9217391,3.63478261 14.6347826,3.63478261 Z" id="Shape"></path>
                            <path d="M0.634782609,3.63478261 C0.347826087,3.63478261 0.0608695652,3.82608696 0.0608695652,4.0173913 L0.0608695652,17.9826087 C0.0608695652,18.173913 0.347826087,18.3652174 0.634782609,18.3652174 C0.92173913,18.3652174 1.20869565,18.173913 1.20869565,17.9826087 L1.20869565,4.0173913 C1.20869565,3.82608696 0.92173913,3.63478261 0.634782609,3.63478261 Z" id="Shape"></path>
                            <path d="M18.2695652,3.63478261 C17.9826087,3.63478261 17.6956522,3.82608696 17.6956522,4.0173913 L17.6956522,17.9826087 C17.6956522,18.173913 17.9826087,18.3652174 18.2695652,18.3652174 C18.5565217,18.3652174 18.8434783,18.173913 18.8434783,17.9826087 L18.8434783,4.0173913 C18.8434783,3.82608696 18.5565217,3.63478261 18.2695652,3.63478261 Z" id="Shape"></path>
                        </g>
                    </g>
                </g>
            </g>
        </g>
    </g>
</svg>