<?xml version="1.0" encoding="UTF-8"?>
<svg width="20px" height="15px" viewBox="0 0 20 15" version="1.1" xmlns="http://www.w3.org/2000/svg" xmlns:xlink="http://www.w3.org/1999/xlink">
    <!-- Generator: Sketch 43.1 (39012) - http://www.bohemiancoding.com/sketch -->
    <title>menu-01</title>
    <desc>Created with Sketch.</desc>
    <defs></defs>
    <g id="Symbols" stroke="none" stroke-width="1" fill="none" fill-rule="evenodd">
        <g id="menu-blue" fill="#000000">
            <g id="menu-01">
                <path d="M0.68,6.9 L19.37,6.9 C19.79,6.9 20,7.2 20,7.5 L20,7.5 C20,7.9 19.685,8.1 19.37,8.1 L0.68,8.1 C0.26,8.1 0.05,7.8 0.05,7.5 L0.05,7.5 C0.05,7.2 0.26,6.9 0.68,6.9 Z" id="Shape"></path>
                <path d="M0.63,0.1 L19.32,0.1 C19.74,0.1 19.95,0.4 19.95,0.7 L19.95,0.7 C19.95,1.1 19.635,1.3 19.32,1.3 L0.63,1.3 C0.21,1.3 0,1 0,0.7 L0,0.7 C0,0.4 0.21,0.1 0.63,0.1 Z" id="Shape"></path>
                <path d="M0.68,13.7 L19.37,13.7 C19.79,13.7 20,14 20,14.3 L20,14.3 C20,14.7 19.685,14.9 19.37,14.9 L0.68,14.9 C0.26,15 0.05,14.7 0.05,14.3 L0.05,14.3 C0.05,14 0.26,13.7 0.68,13.7 Z" id="Shape"></path>
            </g>
        </g>
    </g>
</svg>