<?xml version="1.0" encoding="utf-8"?>
<!-- Generator: Adobe Illustrator 20.1.0, SVG Export Plug-In . SVG Version: 6.00 Build 0)  -->
<svg version="1.1" id="Layer_1" xmlns="http://www.w3.org/2000/svg" xmlns:xlink="http://www.w3.org/1999/xlink" x="0px" y="0px"
	 viewBox="0 0 100 81.5" style="enable-background:new 0 0 100 81.5;" xml:space="preserve">
<g>
	<path d="M93.5,8.1H6.5c-0.4,0-0.8,0.2-1,0.4C5.2,8.8,5,9.1,5,9.5v63.9c0,0.4,0.2,0.8,0.4,1c0.3,0.3,0.6,0.4,1,0.4h87.1
		c0.4,0,0.8-0.2,1-0.4c0.3-0.3,0.4-0.6,0.4-1V9.5c0-0.4-0.2-0.8-0.4-1C94.3,8.2,93.9,8.1,93.5,8.1z M7.9,24.3h84.2v10.5H7.9V24.3z
		 M92.1,21.4H7.9V11h84.2L92.1,21.4L92.1,21.4z M7.9,71.9V37.7h84.2v34.2H7.9z"/>
	<path d="M34.1,49.8H18.9c-0.4,0-0.8,0.2-1,0.4c-0.3,0.3-0.4,0.6-0.4,1v10.4c0,0.4,0.2,0.8,0.4,1c0.3,0.3,0.6,0.4,1,0.4h15.1
		c0.4,0,0.8-0.2,1-0.4c0.3-0.3,0.4-0.6,0.4-1V51.3c0-0.4-0.2-0.8-0.4-1C34.8,50,34.4,49.8,34.1,49.8z M20.4,60.2v-7.5h12.2v7.5H20.4
		z"/>
</g>
</svg>
