<svg xmlns="http://www.w3.org/2000/svg" width="18" height="18" viewBox="0 0 18 18">
  <path fill="none" stroke="#000" d="M15.7692308,7.92307692 C16.0769231,8.23076923 16.0769231,8.69230769 15.7692308,8.92307692 L8.84615385,15.7692308 C8.53846154,16.0769231 8.23076923,16.0769231 7.92307692,15.7692308 L0,7.92307692 L0,0.76923077 C0,0.38461538 0.30769231,0 0.76923077,0 L3.15384615,0 L7.92307692,0 L15.7692308,7.92307692 Z M4.86218462,4.83915385 C5.46298546,4.23835301 5.46298546,3.26426238 4.86218462,2.66346154 C4.26138377,2.0626607 3.28729315,2.0626607 2.68649231,2.66346154 C2.08569147,3.26426238 2.08569147,4.23835301 2.68649231,4.83915385 C3.28729315,5.43995469 4.26138377,5.43995469 4.86218462,4.83915385 Z" transform="translate(1 1)"/>
</svg>
