<svg id="Layer_1" xmlns="http://www.w3.org/2000/svg" viewBox="0 0 25 25"><style>.st0{fill:#5A5A5A;} .st1{fill-rule:evenodd;clip-rule:evenodd;fill:#5A5A5A;} .st2{fill-rule:evenodd;clip-rule:evenodd;} .st3{fill:none;stroke:#5A5A5A;stroke-width:1.3;stroke-miterlimit:10;} .st4{fill:none;stroke:#000000;stroke-width:1.2;stroke-miterlimit:10;} .st5{fill:none;stroke:#000000;stroke-width:1.3;stroke-miterlimit:10;} .st6{fill-rule:evenodd;clip-rule:evenodd;fill:#231F20;} .st7{fill:#231F20;} .st8{fill:#010101;}</style><path d="M18.9 3.6C15.2.6 9.8 1.2 6.8 4.8c-3 3.7-2.4 9.1 1.2 12.1s9.1 2.4 12.1-1.2c3-3.7 2.5-9.1-1.2-12.1zM9 15.7c-3-2.5-3.5-6.9-1-9.9s6.9-3.5 9.9-1 3.5 6.9 1 9.9-6.9 3.5-9.9 1z"/><path class="st2" d="M9.3 17.3c.2-.3.1-.8-.3-1.1-.4-.3-.9-.4-1.1-.1L3 22c-.2.2 0 .7.3 1 .4.3.9.4 1.1.1l4.9-5.8z"/></svg>