<svg id="Layer_1" xmlns="http://www.w3.org/2000/svg" viewBox="0 0 25 25"><style>.st0{fill:#5A5A5A;} .st1{fill-rule:evenodd;clip-rule:evenodd;fill:#5A5A5A;} .st2{fill-rule:evenodd;clip-rule:evenodd;} .st3{fill:none;stroke:#5A5A5A;stroke-width:1.3;stroke-miterlimit:10;} .st4{fill:none;stroke:#000000;stroke-width:1.2;stroke-miterlimit:10;} .st5{fill:none;stroke:#000000;stroke-width:1.3;stroke-miterlimit:10;} .st6{fill-rule:evenodd;clip-rule:evenodd;fill:#231F20;} .st7{fill:#231F20;} .st8{fill:#010101;}</style><path class="st2" d="M18 15.3c-.5-.7-1.4-.9-2.1-.4l-.5.4c-.6.5-1.6.4-2.1-.3l-3.4-4.2c-.7-.9-2.1-.7-2.6.4l-2.8 7.4c-.4 1 .4 2 1.4 2h12.8c1.2 0 1.9-1.3 1.2-2.3l-1.9-3z"/><path class="st2" d="M20.2 1.7H4.8c-1.7 0-3 1.3-3 3v15.5c0 1.6 1.3 3 3 3h15.5c1.7 0 3-1.4 3-3V4.7c-.1-1.6-1.4-3-3.1-3zM22 20.1c0 1.1-.9 2-2 2H5c-1.1 0-2-.9-2-2V4.9c0-1.1.9-2 2-2h15c1.1 0 2 .9 2 2v15.2z"/><ellipse transform="rotate(-45 18.104 6.428)" class="st2" cx="18.1" cy="6.4" rx="2.4" ry="2.4"/></svg>