<svg id="Layer_1" xmlns="http://www.w3.org/2000/svg" viewBox="0 0 25 25"><style>.st0{fill:#5A5A5A;} .st1{fill-rule:evenodd;clip-rule:evenodd;fill:#5A5A5A;} .st2{fill-rule:evenodd;clip-rule:evenodd;} .st3{fill:none;stroke:#5A5A5A;stroke-width:1.3;stroke-miterlimit:10;} .st4{fill:none;stroke:#000000;stroke-width:1.2;stroke-miterlimit:10;} .st5{fill:none;stroke:#000000;stroke-width:1.3;stroke-miterlimit:10;} .st6{fill-rule:evenodd;clip-rule:evenodd;fill:#231F20;} .st7{fill:#231F20;} .st8{fill:#010101;}</style><path class="st2" d="M15.3 12h5.8c1.2 0 2.2-1 2.2-2.2V3.9c0-1.2-1-2.2-2.2-2.2h-5.8c-1.2 0-2.2 1-2.2 2.2v5.9c0 1.2 1 2.2 2.2 2.2zm-1-7.4c0-.9.8-1.7 1.7-1.7h4.5c.9 0 1.7.8 1.7 1.7v4.6c0 .9-.8 1.7-1.7 1.7H16c-.9 0-1.7-.8-1.7-1.7V4.6zM23.3 21v-5.8c0-1.2-1-2.2-2.2-2.2h-5.9C14 13 13 14 13 15.2V21c0 1.2 1 2.2 2.2 2.2h5.9c1.2 0 2.2-1 2.2-2.2zm-7.4 1c-.9 0-1.7-.8-1.7-1.7v-4.5c0-.9.8-1.7 1.7-1.7h4.6c.9 0 1.7.8 1.7 1.7v4.5c0 .9-.8 1.7-1.7 1.7h-4.6zM9.7 1.8H3.9c-1.2 0-2.2 1-2.2 2.2v5.9c0 1.2 1 2.2 2.2 2.2h5.8c1.2 0 2.2-1 2.2-2.2v-6c0-1.2-1-2.1-2.2-2.1zm1 7.4c0 .9-.8 1.7-1.7 1.7H4.6c-.9 0-1.7-.8-1.7-1.7V4.6c0-.9.8-1.7 1.7-1.7H9c.9 0 1.7.8 1.7 1.7v4.6zM9.7 13H3.9c-1.2 0-2.2 1-2.2 2.2v5.9c0 1.2 1 2.2 2.2 2.2h5.8c1.2 0 2.2-1 2.2-2.2v-5.9c0-1.2-1-2.2-2.2-2.2zm1 7.4c0 .9-.8 1.7-1.7 1.7H4.6c-.9 0-1.7-.8-1.7-1.7v-4.6c0-.9.8-1.7 1.7-1.7H9c.9 0 1.7.8 1.7 1.7v4.6z"/></svg>