<svg id="Layer_1" xmlns="http://www.w3.org/2000/svg" viewBox="0 0 25 25"><style>.st0{fill:#5A5A5A;} .st1{fill-rule:evenodd;clip-rule:evenodd;fill:#5A5A5A;} .st2{fill-rule:evenodd;clip-rule:evenodd;} .st3{fill:none;stroke:#5A5A5A;stroke-width:1.3;stroke-miterlimit:10;} .st4{fill:none;stroke:#000000;stroke-width:1.2;stroke-miterlimit:10;} .st5{fill:none;stroke:#000000;stroke-width:1.3;stroke-miterlimit:10;} .st6{fill-rule:evenodd;clip-rule:evenodd;fill:#231F20;} .st7{fill:#231F20;} .st8{fill:#010101;}</style><path class="st6" d="M23 22l-9.5-9.5L22.9 3c.2-.2.2-.7 0-.9-.2-.2-.7-.2-.9 0l-9.5 9.5L3 2c-.3-.2-.7-.2-.9 0-.2.2-.2.7 0 .9l9.5 9.5L2 22.1c-.2.2-.2.7 0 .9.2.2.7.2.9 0l9.6-9.6 9.5 9.5c.2.2.7.2.9 0 .3-.2.3-.6.1-.9z"/></svg>