<?xml version="1.0" encoding="UTF-8"?>
<svg width="18px" height="18px" viewBox="0 0 18 18" version="1.1" xmlns="http://www.w3.org/2000/svg" xmlns:xlink="http://www.w3.org/1999/xlink">
    <!-- Generator: Sketch 46.2 (44496) - http://www.bohemiancoding.com/sketch -->
    <title>icon_filter</title>
    <desc>Created with Sketch.</desc>
    <defs></defs>
    <g fill="#111111" transform="translate(9.000000, 9.000000) rotate(-270.000000) translate(-9.000000, -9.000000)">
        <path fill="#000000" d="M7.38461538,3.97674419 C7.38461538,4.78465116 8.10876923,5.44186047 9,5.44186047 C9.89076923,5.44186047 10.6153846,4.78506977 10.6153846,3.97674419 C10.6153846,3.16883721 9.89123077,2.51162791 9,2.51162791 C8.10923077,2.51162791 7.38461538,3.1684186 7.38461538,3.97674419 L7.38461538,3.97674419 Z M9.69230769,1.32865116 L9.69230769,1.32865116 C11.0150769,1.61246512 12,2.69162791 12,3.97674419 C12,5.26269767 11.0141538,6.34102326 9.69230769,6.62483721 L9.69230769,17.372093 C9.69230769,17.7186977 9.38215385,18 9,18 C8.61784615,18 8.30769231,17.7186977 8.30769231,17.372093 L8.30769231,6.62483721 C6.98492308,6.34102326 6,5.26186047 6,3.97674419 C6,2.6907907 6.98584615,1.61246512 8.30769231,1.32865116 L8.30769231,0.627906977 C8.30769231,0.281302326 8.61784615,0 9,0 C9.38215385,0 9.69230769,0.281302326 9.69230769,0.627906977 L9.69230769,1.32865116 Z" id="Fill-1"></path>
        <path fill="#000000" d="M1.38461538,14.0232558 C1.38461538,14.8311628 2.10876923,15.4883721 3,15.4883721 C3.89076923,15.4883721 4.61538462,14.8315814 4.61538462,14.0232558 C4.61538462,13.2153488 3.89123077,12.5581395 3,12.5581395 C2.10923077,12.5581395 1.38461538,13.2149302 1.38461538,14.0232558 L1.38461538,14.0232558 Z M3.69230769,11.3751628 L3.69230769,11.3751628 C5.01507692,11.6589767 6,12.7381395 6,14.0232558 C6,15.3092093 5.01415385,16.3875349 3.69230769,16.6713488 L3.69230769,17.372093 C3.69230769,17.7186977 3.38215385,18 3,18 C2.61784615,18 2.30769231,17.7186977 2.30769231,17.372093 L2.30769231,16.6713488 C0.984923077,16.3875349 0,15.3083721 0,14.0232558 C0,12.7373023 0.985846154,11.6589767 2.30769231,11.3751628 L2.30769231,0.627906977 C2.30769231,0.281302326 2.61784615,0 3,0 C3.38215385,0 3.69230769,0.281302326 3.69230769,0.627906977 L3.69230769,11.3751628 Z" id="Fill-3"></path>
        <path fill="#000000" d="M13.3846154,10.255814 C13.3846154,11.0637209 14.1087692,11.7209302 15,11.7209302 C15.8907692,11.7209302 16.6153846,11.0641395 16.6153846,10.255814 C16.6153846,9.44790698 15.8912308,8.79069767 15,8.79069767 C14.1092308,8.79069767 13.3846154,9.44748837 13.3846154,10.255814 L13.3846154,10.255814 Z M15.6923077,7.60772093 L15.6923077,7.60772093 C17.0150769,7.89153488 18,8.97069767 18,10.255814 C18,11.5417674 17.0141538,12.620093 15.6923077,12.903907 L15.6923077,17.372093 C15.6923077,17.7186977 15.3821538,18 15,18 C14.6178462,18 14.3076923,17.7186977 14.3076923,17.372093 L14.3076923,12.903907 C12.9849231,12.620093 12,11.5409302 12,10.255814 C12,8.96986047 12.9858462,7.89153488 14.3076923,7.60772093 L14.3076923,0.627906977 C14.3076923,0.281302326 14.6178462,0 15,0 C15.3821538,0 15.6923077,0.281302326 15.6923077,0.627906977 L15.6923077,7.60772093 Z" id="Fill-5"></path>
    </g>
</svg>
