<svg id="Layer_1" xmlns="http://www.w3.org/2000/svg" viewBox="0 0 25 25"><style>.st0{fill:#5A5A5A;} .st1{fill-rule:evenodd;clip-rule:evenodd;fill:#5A5A5A;} .st2{fill-rule:evenodd;clip-rule:evenodd;} .st3{fill:none;stroke:#5A5A5A;stroke-width:1.3;stroke-miterlimit:10;} .st4{fill:none;stroke:#000000;stroke-width:1.2;stroke-miterlimit:10;} .st5{fill:none;stroke:#000000;stroke-width:1.3;stroke-miterlimit:10;} .st6{fill-rule:evenodd;clip-rule:evenodd;fill:#231F20;} .st7{fill:#231F20;} .st8{fill:#010101;}</style><path class="st8" d="M22.8 11.6c.4-.4.6-1.1.4-1.6-.2-.6-.7-1-1.3-1.1l-5.3-.8c-.1 0-.2-.1-.2-.2L14 3.1c-.3-.6-.8-.9-1.4-.9s-1.2.3-1.4.9L8.7 7.9c0 .1-.1.2-.2.2l-5.4.8c-.6 0-1.1.5-1.3 1-.2.6 0 1.2.4 1.6l3.9 3.8c.1.1.1.2.1.3l-.9 5.3c-.1.6.1 1.2.6 1.6.5.4 1.1.4 1.7.1l4.8-2.5h.3l4.8 2.5c.2.1.5.2.7.2.3 0 .7-.1.9-.3.5-.4.7-1 .6-1.6l-.9-5.3c0-.1 0-.2.1-.3l3.9-3.7zm-5.2 4.2l.9 5.3c0 .2-.1.3-.1.3s-.2.1-.3 0L13.2 19c-.2-.1-.5-.2-.7-.2-.3 0-.5.1-.7.2L7 21.5c-.2.1-.3 0-.3 0s-.2-.1-.1-.3l.9-5.3c.1-.5-.1-1.1-.5-1.4l-3.9-3.8c-.1-.2-.1-.3-.1-.4 0-.1.1-.2.3-.2l5.3-.8c.5-.1 1-.4 1.2-.9l2.4-4.8c.1-.2.2-.2.3-.2.1 0 .2 0 .3.2l2.4 4.8c.2.5.7.8 1.2.9l5.3.8c.2 0 .2.2.3.2 0 .1 0 .2-.1.3L18 14.4c-.4.4-.5.9-.4 1.4z"/></svg>