<svg id="Layer_1" xmlns="http://www.w3.org/2000/svg" viewBox="0 0 25 25"><style>.st0{fill:#5A5A5A;} .st1{fill-rule:evenodd;clip-rule:evenodd;fill:#5A5A5A;} .st2{fill-rule:evenodd;clip-rule:evenodd;} .st3{fill:none;stroke:#5A5A5A;stroke-width:1.3;stroke-miterlimit:10;} .st4{fill:none;stroke:#000000;stroke-width:1.2;stroke-miterlimit:10;} .st5{fill:none;stroke:#000000;stroke-width:1.3;stroke-miterlimit:10;} .st6{fill-rule:evenodd;clip-rule:evenodd;fill:#231F20;} .st7{fill:#231F20;} .st8{fill:#010101;}</style><path d="M14.6 10.1v-1c0-.1-.1-.1-.2-.1l-2.1 1.6v.1l2.1 1.6s.1 0 .1-.1v-1c1.6 0 2.9 1.4 2.7 3-.1 1.4-1.2 2.5-2.6 2.6-1.5.1-2.7-1-2.9-2.3 0-.3-.3-.4-.5-.4-.3 0-.6.3-.5.6.3 2 2.1 3.5 4.3 3.2 1.8-.2 3.2-1.6 3.4-3.4.2-2.4-1.6-4.4-3.8-4.4z"/><ellipse class="st7" cx="10.9" cy="22" rx="1.2" ry="1.2"/><ellipse class="st7" cx="17.9" cy="22" rx="1.2" ry="1.2"/><path class="st7" d="M22.4 6.5H6.5L5.3 2.2s-.1-.4-.5-.4H2.3s-.6 0-.6.6.6.6.6.6h2l4.4 16.9s.3.8.9.8h9.7s.6.1.9-.8 3-11.8 3-11.8.5-1.6-.8-1.6zM21.7 9c-.3 1.2-2.6 9.7-2.6 9.7-.2.6-.7.7-.7.7s-7.6.1-8.1.1-.7-.7-.7-.7l-2.8-11H21s1.1-.1.7 1.2z"/></svg>