<svg id="Layer_1" xmlns="http://www.w3.org/2000/svg" viewBox="0 0 25 25"><style>.st0{fill:#5A5A5A;} .st1{fill-rule:evenodd;clip-rule:evenodd;fill:#5A5A5A;} .st2{fill-rule:evenodd;clip-rule:evenodd;} .st3{fill:none;stroke:#5A5A5A;stroke-width:1.3;stroke-miterlimit:10;} .st4{fill:none;stroke:#000000;stroke-width:1.2;stroke-miterlimit:10;} .st5{fill:none;stroke:#000000;stroke-width:1.3;stroke-miterlimit:10;} .st6{fill-rule:evenodd;clip-rule:evenodd;fill:#231F20;} .st7{fill:#231F20;} .st8{fill:#010101;}</style><path d="M15.3 14.2H9.9c-.2 0-.4.3-.4.6s.2.6.4.6h5.4c.2 0 .4-.3.4-.6 0-.4-.2-.6-.4-.6z"/><ellipse transform="rotate(-45 6.733 14.754)" cx="6.7" cy="14.8" rx="1.6" ry="1.6"/><ellipse transform="rotate(-45 18.41 14.782)" cx="18.4" cy="14.8" rx="1.6" ry="1.6"/><path d="M21.7 10.2c-.2-.1-.3-.2-.4-.4L20 3.9c-.4-1.3-1.5-2.2-2.9-2.2H8c-1.3 0-2.5.9-2.9 2.2L3.7 9.7c0 .2-.2.3-.4.4-.9.3-1.5 1.2-1.5 2.2v5.1c0 .9.5 1.6 1.2 2V20.6c0 1.4 1.2 2.6 2.6 2.6 1.4 0 2.6-1.2 2.6-2.6v-.4c0-.3.2-.5.5-.5H16c.3 0 .5.2.5.5v.4c0 1.4 1.2 2.6 2.6 2.6 1.5 0 2.6-1.2 2.6-2.6v-1.1-.1c.8-.4 1.3-1.1 1.3-2v-5.1c.2-1-.4-1.8-1.3-2.1zM5.2 8.6l.7-3.5C6.2 3.8 7.3 3 8.5 3h8.1c1.2 0 2.2.9 2.6 2.2l.8 4.1c.1.3-.2.6-.5.6H6.3c-.7 0-1.2-.6-1.1-1.3zM22 17.3c0 .6-.6 1.1-1.3 1.2v2.1c0 .8-.6 1.5-1.4 1.5s-1.4-.7-1.4-1.5v-2.1H7.1v2.1c0 .8-.6 1.5-1.4 1.5s-1.4-.7-1.4-1.5v-2.1c-.6-.1-1.3-.6-1.3-1.2v-5c0-.7.6-1.1 1.3-1.1h16.4c.7 0 1.2.5 1.2 1.2v4.9z"/></svg>