<svg id="Layer_1" xmlns="http://www.w3.org/2000/svg" viewBox="0 0 25 25"><style>.st0{fill:#5A5A5A;} .st1{fill-rule:evenodd;clip-rule:evenodd;fill:#5A5A5A;} .st2{fill-rule:evenodd;clip-rule:evenodd;} .st3{fill:none;stroke:#5A5A5A;stroke-width:1.3;stroke-miterlimit:10;} .st4{fill:none;stroke:#000000;stroke-width:1.2;stroke-miterlimit:10;} .st5{fill:none;stroke:#000000;stroke-width:1.3;stroke-miterlimit:10;} .st6{fill-rule:evenodd;clip-rule:evenodd;fill:#231F20;} .st7{fill:#231F20;} .st8{fill:#010101;}</style><path d="M8.4 14.6h1.5s.6 0 .6.9v7.6h10.4c.3 0 .5-.3.5-.6V12.1 12c1.1-.5 1.7-1.8 1.7-3.2 0-.1-.1-.3-.1-.3L19.9 2c-.1-.2-.3-.3-.5-.3h-14s-.3 0-.5.3L1.8 8.4s-.1.1-.1.5c0 1.3.6 2.5 1.6 3.1.1.1.2.2.2.3v10.3c0 .3.2.6.5.6h3.6v-7.7s0-.9.8-.9zM3.6 7.4l2.1-4.3s.1-.2.4-.2H19c.2 0 .3.1.4.2l2.1 4.3c.1.2-.1.6-.4.6H3.9c-.3 0-.5-.3-.3-.6zM17 9.2c-.2 1.1-1 1.9-2 1.9s-1.8-.8-2-1.9h4zm-5.1 0c-.2 1.1-1 1.9-2 1.9s-1.8-.8-2-1.9h4zm-9.1 0h4c-.2 1.1-1 1.9-2 1.9s-1.8-.8-2-1.9zm17.5 12.4c0 .4-.4.4-.4.4H12c-.4 0-.4-.4-.4-.4v-6.1c0-2.1-1.4-2.1-1.4-2.1H8.3c-1.7 0-1.8 2.1-1.8 2.1v6.1l-.4.4H5c-.4 0-.4-.4-.4-.4v-9.3c1.6 0 2.1-.8 2.4-1.1.3-.3.6 0 .6 0s.9 1.1 2.3 1.1c1.3 0 1.9-.8 2.3-1.1.3-.3.6 0 .6 0 .2.3 1.1 1.1 2.3 1.1 1.2 0 1.9-.8 2.3-1.1.3-.3.6 0 .6 0 1 1.3 2.4 1.1 2.4 1.1s-.1 8.9-.1 9.3zm-.1-10.5c-1 0-1.8-.8-2-1.9h4c-.2 1.1-1 1.9-2 1.9z"/></svg>