<svg id="Layer_1" xmlns="http://www.w3.org/2000/svg" viewBox="0 0 25 25"><style>.st0{fill:#5A5A5A;} .st1{fill-rule:evenodd;clip-rule:evenodd;fill:#5A5A5A;} .st2{fill-rule:evenodd;clip-rule:evenodd;} .st3{fill:none;stroke:#5A5A5A;stroke-width:1.3;stroke-miterlimit:10;} .st4{fill:none;stroke:#000000;stroke-width:1.2;stroke-miterlimit:10;} .st5{fill:none;stroke:#000000;stroke-width:1.3;stroke-miterlimit:10;} .st6{fill-rule:evenodd;clip-rule:evenodd;fill:#231F20;} .st7{fill:#231F20;} .st8{fill:#010101;}</style><path d="M21.2 20.7c.4-.5.7-1 .7-1.6 0-.6-.2-1.1-.7-1.6L18.7 15c-.4-.5-1-.7-1.5-.7-.6 0-1.1.2-1.6.7l-1.4 1.4-.8-.4c-1.3-.9-2.6-2-3.7-3.4-.6-.7-.9-1.3-1.2-1.9.4-.3.7-.7 1.1-1l.4-.4c1-1 1-2.2 0-3.1L7.4 3.7c-.5-.5-1-.7-1.5-.7-.6 0-1.1.2-1.6.7L2.8 5.2c-.6.6-.9 1.3-1 2.1-.1 1.3.3 2.6.6 3.4.7 2 1.8 3.8 3.5 5.8 2 2.4 4.4 4.2 7.1 5.6 1 .5 2.4 1.1 4 1.2h.3c1 0 1.9-.4 2.6-1.1l1.3-1.5zm-.8-.9L19 21.3c-.5.5-1 .7-1.7.7h-.2c-1.3-.1-2.6-.6-3.5-1.1-2.6-1.2-4.8-3-6.7-5.2-1.5-1.9-2.6-3.6-3.3-5.4-.5-1.2-.7-2-.6-2.9 0-.5.2-1 .6-1.3l1.5-1.5c.2-.2.5-.3.7-.3.3 0 .7.3.7.3L9 7c.5.5.5 1 0 1.4L7.5 10c-.4.4-.3.8-.2 1 .3.8.8 1.5 1.5 2.4 1.3 1.5 2.6 2.7 4 3.7l1.1.6c.2.1.3.1.4.1.4 0 .6-.2.7-.3l1.6-1.6c.2-.2.4-.3.7-.3.3 0 .5.2.7.3l2.5 2.5c.3.5.3 1-.1 1.4M13.4 6.9c1.2.2 2.3.8 3.1 1.6.9.9 1.4 1.9 1.6 3.1 0 .3.3.5.6.5h.1c.3-.1.6-.4.5-.7-.2-1.4-.9-2.7-2-3.8-1-1-2.4-1.7-3.8-2-.3-.1-.6.2-.7.5 0 .4.2.7.6.8zm0 0M23.2 11.2C22.8 8.9 21.7 6.7 20 5c-1.7-1.7-3.9-2.8-6.2-3.2-.3-.1-.6.2-.7.5-.1.3.1.6.5.7 2.1.4 4 1.4 5.6 2.9 1.5 1.5 2.5 3.5 2.9 5.6 0 .3.3.5.6.5h.1c.3-.1.5-.4.4-.8zm0 0"/></svg>