<svg id="Layer_1" xmlns="http://www.w3.org/2000/svg" viewBox="0 0 25 25"><style>.st0{fill:#5A5A5A;} .st1{fill-rule:evenodd;clip-rule:evenodd;fill:#5A5A5A;} .st2{fill-rule:evenodd;clip-rule:evenodd;} .st3{fill:none;stroke:#5A5A5A;stroke-width:1.3;stroke-miterlimit:10;} .st4{fill:none;stroke:#000000;stroke-width:1.2;stroke-miterlimit:10;} .st5{fill:none;stroke:#000000;stroke-width:1.3;stroke-miterlimit:10;} .st6{fill-rule:evenodd;clip-rule:evenodd;fill:#231F20;} .st7{fill:#231F20;} .st8{fill:#010101;}</style><path d="M11.7 1.9L2.4 7.8c-.4.3-.6.7-.6 1.2v12.9c0 .7.6 1.3 1.3 1.3h5.6c1.3 0 1.3 0 1.3-1.3v-4.2c0-1.3.6-1.3 1.3-1.3h2.1c.7 0 1.3 0 1.3 1.3v4.2c0 1.3 0 1.3 1.3 1.3h5.8c.7 0 1.3-.6 1.3-1.3V9.1c0-.5-.2-.9-.6-1.1L13 2c-.3-.3-.9-.3-1.3-.1zm9.1 20.2h-3.5c-.7 0-1.3 0-1.3-1.3v-4.2c0-.7-.6-1.3-1.3-1.3h-4.4c-.7 0-1.3.6-1.3 1.3v4.2c0 1.3-.6 1.3-1.3 1.3H4.2c-.7 0-1.3 0-1.3-1.3V9.6c0-.5.3-.9.7-1.2l8.2-5c.4-.2.9-.2 1.3 0l8.3 5c.4.2.7.7.7 1.2v11.1c0 1.4-.6 1.4-1.3 1.4z"/></svg>