<svg id="Layer_1" xmlns="http://www.w3.org/2000/svg" viewBox="0 0 25 25"><style>.st0{fill:#5A5A5A;} .st1{fill-rule:evenodd;clip-rule:evenodd;fill:#5A5A5A;} .st2{fill-rule:evenodd;clip-rule:evenodd;} .st3{fill:none;stroke:#5A5A5A;stroke-width:1.3;stroke-miterlimit:10;} .st4{fill:none;stroke:#000000;stroke-width:1.2;stroke-miterlimit:10;} .st5{fill:none;stroke:#000000;stroke-width:1.3;stroke-miterlimit:10;} .st6{fill-rule:evenodd;clip-rule:evenodd;fill:#231F20;} .st7{fill:#231F20;} .st8{fill:#010101;}</style><path class="st2" d="M12.5 1.8C6.6 1.8 1.8 6.6 1.8 12.5c0 5.9 4.8 10.7 10.7 10.7 5.9 0 10.7-4.8 10.7-10.7 0-5.9-4.8-10.7-10.7-10.7zm0 20.3c-5.3 0-9.6-4.3-9.6-9.6s4.3-9.6 9.6-9.6 9.6 4.3 9.6 9.6-4.3 9.6-9.6 9.6z"/><path class="st2" d="M15.7 14.2c-.2-.9-.7-1.5-1.5-1.5h-2.8c-.8 0-1.7.6-1.8 1.5l-1.1 3.4c-.4 1.5.7 1.5 1.5 1.5h5.2c.8 0 2.1 0 1.5-1.5l-1-3.4z"/><ellipse transform="rotate(-45 12.484 8.823)" class="st2" cx="12.5" cy="8.8" rx="2.4" ry="2.4"/></svg>