<svg xmlns="http://www.w3.org/2000/svg" width="16" height="17" viewBox="0 0 16 17">
  <g fill="none" fill-rule="evenodd" transform="translate(-1 -1)">
    <polygon points="0 0 18 0 18 18 0 18"/>
    <path fill="#231F20" fill-rule="nonzero" d="M14.6773681,3.59334352 L12.4545022,3.59334352 L12.4545022,2.48191058 C12.4545022,1.66685976 11.7876425,1 10.9725917,1 L7.04552861,1 C6.23047779,1 5.56361803,1.66685976 5.56361803,2.48191058 L5.56361803,3.59334352 L3.26665663,3.59334352 C2.00703263,3.59334352 0.747408635,4.48248987 1.04379075,5.81620939 L3.26665663,14.855864 C3.7112298,16.3377745 4.22989851,17.0046343 5.4895225,17.0046343 L12.5285978,17.0046343 C13.7882218,17.0046343 14.4550815,16.1154879 14.7514636,14.855864 L16.9743295,5.81620939 C17.1966161,4.5565854 15.9369921,3.59334352 14.6773681,3.59334352 Z M6.60095544,2.7782927 C6.60095544,2.18552847 7.04552861,1.74095529 7.63829285,1.74095529 L10.453923,1.74095529 C11.0466872,1.74095529 11.4912604,2.18552847 11.4912604,2.7782927 L11.4912604,3.59334352 L6.60095544,3.59334352 L6.60095544,2.7782927 Z M16.0110876,5.96440045 L13.7882218,14.7076729 C13.5659352,15.5227237 13.121362,16.1154879 12.3063112,16.1154879 L5.63771356,16.1154879 C4.82266274,16.1154879 4.52628062,15.6709148 4.15580298,14.7076729 L1.9329371,5.96440045 C1.71065051,5.0752541 2.59979686,4.48248987 3.41484768,4.48248987 L14.5291771,4.48248987 C15.3442279,4.48248987 16.2333742,5.14934963 16.0110876,5.96440045 Z"/>
  </g>
</svg>
