<svg id="Layer_1" xmlns="http://www.w3.org/2000/svg" viewBox="0 0 25 25"><style>.st0{fill:#5A5A5A;} .st1{fill-rule:evenodd;clip-rule:evenodd;fill:#5A5A5A;} .st2{fill-rule:evenodd;clip-rule:evenodd;} .st3{fill:none;stroke:#5A5A5A;stroke-width:1.3;stroke-miterlimit:10;} .st4{fill:none;stroke:#000000;stroke-width:1.2;stroke-miterlimit:10;} .st5{fill:none;stroke:#000000;stroke-width:1.3;stroke-miterlimit:10;} .st6{fill-rule:evenodd;clip-rule:evenodd;fill:#231F20;} .st7{fill:#231F20;} .st8{fill:#010101;}</style><path class="st2" d="M22.4 6.5h-6.8c1-.7 1.7-1.7 2.1-2.9.1-.4 0-.9-.2-1.3-.4-.5-1-.7-1.6-.5-1.5.5-2.8 1.6-3.4 3-.6-1.4-1.9-2.5-3.4-3-.6-.2-1.2 0-1.6.5-.3.4-.4.8-.2 1.3.4 1.2 1.1 2.2 2.1 2.9H2.6c-.8 0-1.5.7-1.5 1.5v3c0 .6.4 1.2 1 1.4v8.5c0 1.4 1.1 2.5 2.5 2.5h15.8c1.4 0 2.5-1.1 2.5-2.5v-8.5c.6-.2 1-.7 1-1.4V8c0-.9-.7-1.5-1.5-1.5zM11.9 22.3H4.6c-.8 0-1.5-.7-1.5-1.5v-8.4h8.8v9.9zm0-10.9H2.6c-.3 0-.5-.2-.5-.5v-3c0-.3.2-.5.5-.5h8.8L8.8 10c-.2.2-.1.5.1.7.2.2.5.3.7.1l2.3-2.3v2.9zM8.2 3.3c0-.2.1-.3.1-.4.1-.1.2-.2.4-.2h.1c1.7.5 2.9 2 3.2 3.7-1.8-.2-3.3-1.4-3.8-3.1zm8-.6h.1c.1 0 .3.1.4.2.1.1.1.2.1.4-.5 1.7-2 2.9-3.7 3.2.1-1.8 1.4-3.3 3.1-3.8zm5.7 18.1c0 .8-.7 1.5-1.5 1.5h-7.3v-9.9h8.8v8.4zm1-9.9s0 .5-.5.5h-9.3V8.5l2.3 2.3s.3.3.7-.1.1-.7.1-.7l-2.5-2.5h8.8s.5 0 .5.5-.1 2.9-.1 2.9z"/></svg>