<svg width="59" height="62" viewBox="158 194 59 62" xmlns="http://www.w3.org/2000/svg"><path d="M186.358 204.118h-19.075c-.492 0-.89-.398-.89-.89s.398-.89.89-.89h19.075c.49 0 .89.398.89.89s-.4.89-.89.89zm-11.954 4.578h-7.12c-.493 0-.89-.398-.89-.89s.397-.89.89-.89h7.12c.492 0 .89.398.89.89s-.398.89-.89.89zm3.815 5.086h-10.937c-.492 0-.89-.398-.89-.89s.398-.89.89-.89h10.936c.49 0 .89.398.89.89s-.4.89-.89.89zm4.323 7.12h-15.26c-.492 0-.89-.397-.89-.89 0-.49.398-.89.89-.89h15.26c.492 0 .89.4.89.89 0 .493-.398.89-.89.89zm-12.97 5.597h-2.29c-.492 0-.89-.4-.89-.89 0-.493.398-.892.89-.892h2.29c.49 0 .89.4.89.89 0 .493-.4.89-.89.89zm8.646 6.61h-10.937c-.492 0-.89-.398-.89-.89s.398-.89.89-.89h10.936c.49 0 .89.398.89.89s-.4.89-.89.89zm-2.544 4.324h-8.393c-.492 0-.89-.398-.89-.89s.398-.89.89-.89h8.393c.492 0 .89.398.89.89s-.398.89-.89.89zm8.393 10.683h-16.787c-.492 0-.89-.4-.89-.89 0-.493.398-.89.89-.89h16.786c.49 0 .89.397.89.89 0 .49-.4.89-.89.89zm23.27-32.727h7.663v-2.016c0-1.888-1.67-3.424-3.72-3.424-2.175 0-3.943 1.447-3.943 3.227v2.213zm1.587 23.556c.27 0 .53.124.697.338l1.682 2.124 1.825-2.148c.185-.216.46-.328.744-.312.283.02.54.176.69.416l.438.7v-22.893h-7.662v23.308l.873-1.173c.166-.222.424-.354.7-.358h.014zm.408 8.916h3.66l1.9-4.612-1.194-1.91-1.74 2.048c-.173.202-.44.31-.694.313-.266-.003-.516-.127-.682-.336l-1.636-2.067-1.486 1.997 1.873 4.568zm.73 1.78l1.095 2.668 1.1-2.668h-2.195zm1.092 5.898c-.36 0-.686-.218-.823-.552l-4.71-11.484c-.064-.154-.08-.32-.056-.48-.006-.04-.01-.08-.01-.122v-26.55l-.002-.07c0-.026 0-.05.003-.073v-3.033c0-2.76 2.567-5.007 5.722-5.007 3.033 0 5.5 2.334 5.5 5.203v29.8c0 .125-.026.244-.074.35l-4.727 11.466c-.137.333-.462.55-.823.55zm-15.77-54.22h12.59c-.382-3.092-2.737-5.362-5.824-5.53-.093.035-.195.054-.3.054l-1.106.005c-2.806.366-5.36 2.226-5.36 5.46v.01zm-5.27 52.9h3.49v-52.91c0-2.23.952-4.137 2.545-5.443l-30.024.112c-1.446.095-6.348.766-6.348 5.33v52.05l3.71-2.272c.303-.185.686-.172.976.03l4.02 2.813 6.053-2.87c.26-.125.565-.114.815.026l5.133 2.87 4.522-2.79c.308-.19.702-.174.994.04l4.112 3.014zm4.38 1.78h-4.672c-.19 0-.373-.06-.526-.17l-3.865-2.833-4.458 2.75c-.275.17-.62.175-.9.018l-5.19-2.9-6.104 2.897c-.29.136-.63.108-.893-.075l-3.966-2.776-4.57 2.797c-.274.168-.618.175-.898.017-.282-.158-.456-.454-.456-.776v-53.64c0-4 3.168-6.79 8.07-7.107h1.92l32.592-.132c.39-.045.792-.068 1.204-.068 4.575 0 8.024 3.53 8.024 8.21 0 .492-.398.89-.89.89h-13.534v52.01c0 .492-.398.89-.89.89z" fill-rule="evenodd" opacity=".3"/></svg>