<svg id="Layer_1" xmlns="http://www.w3.org/2000/svg" viewBox="0 0 25 25"><style>.st0{fill:#5A5A5A;} .st1{fill-rule:evenodd;clip-rule:evenodd;fill:#5A5A5A;} .st2{fill-rule:evenodd;clip-rule:evenodd;} .st3{fill:none;stroke:#5A5A5A;stroke-width:1.3;stroke-miterlimit:10;} .st4{fill:none;stroke:#000000;stroke-width:1.2;stroke-miterlimit:10;} .st5{fill:none;stroke:#000000;stroke-width:1.3;stroke-miterlimit:10;} .st6{fill-rule:evenodd;clip-rule:evenodd;fill:#231F20;} .st7{fill:#231F20;} .st8{fill:#010101;}</style><path class="st2" d="M12.5.8C6.2.8 1.2 5.9 1.2 12.2c0 6.3 5.1 11.3 11.3 11.3 6.3 0 11.3-5.1 11.3-11.3 0-6.3-5-11.4-11.3-11.4zm0 21.2c-5.4 0-9.9-4.4-9.9-9.9 0-5.4 4.4-9.9 9.9-9.9 5.4 0 9.9 4.4 9.9 9.9S17.9 22 12.5 22z"/><path class="st2" d="M18 13h-5.1V6.1c0-.2-.3-.4-.6-.4s-.6.2-.6.4v7.6c0 .1 0 .2.1.2.1.1.1.1.2.1h6c.2 0 .4-.3.4-.6s-.2-.4-.4-.4z"/></svg>