<svg id="Layer_1" xmlns="http://www.w3.org/2000/svg" viewBox="0 0 25 25"><style>.st0{fill:#5A5A5A;} .st1{fill-rule:evenodd;clip-rule:evenodd;fill:#5A5A5A;} .st2{fill-rule:evenodd;clip-rule:evenodd;} .st3{fill:none;stroke:#5A5A5A;stroke-width:1.3;stroke-miterlimit:10;} .st4{fill:none;stroke:#000000;stroke-width:1.2;stroke-miterlimit:10;} .st5{fill:none;stroke:#000000;stroke-width:1.3;stroke-miterlimit:10;} .st6{fill-rule:evenodd;clip-rule:evenodd;fill:#231F20;} .st7{fill:#231F20;} .st8{fill:#010101;}</style><path class="st2" d="M20.9 1.7H4.1c-1.7 0-3 1.3-3 3v15.5c0 1.6 1.3 3 3 3h16.8c1.7 0 3-1.4 3-3V4.7c0-1.6-1.4-3-3-3zm1.8 18.4c0 1.1-.9 2-2 2H4.4c-1.1 0-2-.9-2-2V4.9c0-1.1.9-2 2-2h16.3c1.1 0 2 .9 2 2v15.2z"/><path class="st2" d="M20.2 6.6c0-.3-.2-.6-.4-.6H5.2c-.2 0-.4.3-.4.6s.2.6.4.6h14.6c.2-.1.4-.3.4-.6zM18.7 14.7c-.7 0-1.4.3-1.9.8-.5-.5-1.1-.8-1.9-.8-1.4 0-2.5 1.1-2.5 2.4 0 1.3 1.1 2.4 2.5 2.4.7 0 1.4-.3 1.9-.8.5.5 1.1.8 1.9.8 1.4 0 2.5-1.1 2.5-2.4 0-1.3-1.1-2.4-2.5-2.4z"/></svg>