<svg id="Layer_1" xmlns="http://www.w3.org/2000/svg" viewBox="0 0 25 25"><style>.st0{fill:#5A5A5A;} .st1{fill-rule:evenodd;clip-rule:evenodd;fill:#5A5A5A;} .st2{fill-rule:evenodd;clip-rule:evenodd;} .st3{fill:none;stroke:#5A5A5A;stroke-width:1.3;stroke-miterlimit:10;} .st4{fill:none;stroke:#000000;stroke-width:1.2;stroke-miterlimit:10;} .st5{fill:none;stroke:#000000;stroke-width:1.3;stroke-miterlimit:10;} .st6{fill-rule:evenodd;clip-rule:evenodd;fill:#231F20;} .st7{fill:#231F20;} .st8{fill:#010101;}</style><path class="st2" d="M12.5 1.9C6.6 1.9 1.7 6.7 1.7 12.6c0 5.9 4.8 10.8 10.8 10.8s10.8-4.8 10.8-10.8c0-5.9-4.8-10.7-10.8-10.7zm0 19.9c-5.1 0-9.2-4.1-9.2-9.2s4.1-9.2 9.2-9.2 9.2 4.1 9.2 9.2-4.1 9.2-9.2 9.2z"/><path d="M12.7 11.5c.4-.3.7-.5.7-.9s-.3-.7-.9-.7c-.6 0-1.1.3-1.5.7l-1-1.1c.6-.7 1.6-1.2 2.6-1.2 1.5 0 2.5.8 2.5 1.9 0 1-.6 1.5-1.2 1.9-.4.3-.8.6-.8 1 0 .2.1.4.2.5l-1.3.5c-.3-.3-.4-.6-.4-1.1 0-.8.6-1.1 1.1-1.5zm-.1 3.3c.5 0 1 .4 1 1 0 .5-.4 1-1 1-.5 0-1-.4-1-1s.4-1 1-1z"/></svg>