<svg id="Layer_1" xmlns="http://www.w3.org/2000/svg" viewBox="0 0 25 25"><style>.st0{fill:#5A5A5A;} .st1{fill-rule:evenodd;clip-rule:evenodd;fill:#5A5A5A;} .st2{fill-rule:evenodd;clip-rule:evenodd;} .st3{fill:none;stroke:#5A5A5A;stroke-width:1.3;stroke-miterlimit:10;} .st4{fill:none;stroke:#000000;stroke-width:1.2;stroke-miterlimit:10;} .st5{fill:none;stroke:#000000;stroke-width:1.3;stroke-miterlimit:10;} .st6{fill-rule:evenodd;clip-rule:evenodd;fill:#231F20;} .st7{fill:#231F20;} .st8{fill:#010101;}</style><path class="st2" d="M12.5 2.1c-5.9 0-10.7 4.2-10.7 9.4 0 2.9 1.5 5.5 3.9 7.2.1.1.2.2.2.3v3.8c0 .3.4.5.6.4l3.9-2.4c.1-.1.2-.1.3-.1.6.1 1.2.1 1.9.1 5.9 0 10.7-4.2 10.7-9.4-.1-5.1-4.9-9.3-10.8-9.3zm0 17.4c-.8 0-1.2 0-1.9-.2-.2-.1-.5 0-.6.1-.6.4-2.3 1.7-2.9 2 0 0-.1 0-.1-.1l.2-3.1c-.1-.1-.2-.2-.3-.2-2.3-1.5-3.8-3.8-3.8-6.5 0-4.5 4.2-8.1 9.4-8.1s9.4 3.6 9.4 8.1-4.2 8-9.4 8z"/><path class="st2" d="M17.8 9H7.2c-.2 0-.4.2-.4.6s.2.6.4.6h10.6c.2 0 .4-.3.4-.6S18 9 17.8 9zM16.8 13.3H8.2c-.2 0-.4.3-.4.6s.2.6.4.6h8.6c.2 0 .4-.3.4-.6s-.2-.6-.4-.6z"/></svg>