<svg id="Layer_1" xmlns="http://www.w3.org/2000/svg" viewBox="0 0 25 25"><style>.st0{fill:#5A5A5A;} .st1{fill-rule:evenodd;clip-rule:evenodd;fill:#5A5A5A;} .st2{fill-rule:evenodd;clip-rule:evenodd;} .st3{fill:none;stroke:#5A5A5A;stroke-width:1.3;stroke-miterlimit:10;} .st4{fill:none;stroke:#000000;stroke-width:1.2;stroke-miterlimit:10;} .st5{fill:none;stroke:#000000;stroke-width:1.3;stroke-miterlimit:10;} .st6{fill-rule:evenodd;clip-rule:evenodd;fill:#231F20;} .st7{fill:#231F20;} .st8{fill:#010101;}</style><path d="M12.9 12.4v-1c0-.1-.1-.1-.1-.1l-2.1 1.6v.1l2.1 1.6s.1 0 .1-.1v-1c1.6 0 2.9 1.4 2.7 3-.1 1.4-1.2 2.5-2.6 2.6-1.5.1-2.7-1-2.9-2.3 0-.3-.3-.4-.5-.4-.3 0-.6.3-.5.6.3 2 2.1 3.5 4.3 3.2 1.8-.2 3.2-1.6 3.4-3.4.1-2.4-1.7-4.4-3.9-4.4z"/><path class="st2" d="M20.2 2.8h-1.8v-.6c0-.2-.3-.4-.6-.4s-.5.2-.5.4v.7H7.6v-.7c0-.2-.3-.4-.6-.4s-.5.2-.5.4v.7H4.8c-1.7 0-3 1.3-3 3v14.4c0 1.6 1.3 3 3 3h15.5c1.7 0 3-1.4 3-3V5.8c-.1-1.6-1.4-3-3.1-3zM5 4h1.5v1.8c0 .2.3.4.6.4s.5-.2.5-.4V4h9.7v1.8c0 .2.3.4.6.4s.6-.2.6-.4V4H20c1.1 0 2 .9 2 2v2.9H3V6c0-1.1.9-2 2-2zm15 18.1H5c-1.1 0-2-.9-2-2v-10h19v10c0 1-.9 2-2 2z"/></svg>