<?xml version="1.0" encoding="UTF-8"?>
<svg width="16px" height="16px" viewBox="0 0 16 16" version="1.1" xmlns="http://www.w3.org/2000/svg" xmlns:xlink="http://www.w3.org/1999/xlink">
    <!-- Generator: Sketch 45.2 (43514) - http://www.bohemiancoding.com/sketch -->
    <title>time</title>
    <desc>Created with Sketch.</desc>
    <defs></defs>
    <g id="Page-1" stroke="none" stroke-width="1" fill="none" fill-rule="evenodd">
        <g id="time" transform="translate(-1.000000, -1.000000)">
            <polygon id="Shape" points="0 0 18 0 18 18 0 18"></polygon>
            <path d="M9,1 C4.53982301,1 1,4.59471366 1,9.03524229 C1,13.4757709 4.61061947,17 9,17 C13.460177,17 17,13.4052863 17,9.03524229 C17,4.59471366 13.460177,1 9,1 Z M9,15.9427313 C5.17699115,15.9427313 1.99115044,12.8414097 1.99115044,8.96475771 C1.99115044,5.15859031 5.10619469,1.98678414 9,1.98678414 C12.8230088,1.98678414 16.0088496,5.08810573 16.0088496,8.96475771 C16.0088496,12.8414097 12.8230088,15.9427313 9,15.9427313 Z M12.8938053,9.59911894 L9.28318584,9.59911894 L9.28318584,4.73568282 C9.28318584,4.59471366 9.07079646,4.45374449 8.85840708,4.45374449 C8.6460177,4.45374449 8.43362832,4.59471366 8.43362832,4.73568282 L8.43362832,10.092511 C8.43362832,10.1629956 8.43362832,10.2334802 8.50442478,10.2334802 C8.50442478,10.2334802 8.50442478,10.2334802 8.50442478,10.2334802 C8.50442478,10.2334802 8.50442478,10.2334802 8.50442478,10.2334802 C8.57522124,10.3039648 8.57522124,10.3039648 8.6460177,10.3039648 L12.8938053,10.3039648 C13.0353982,10.3039648 13.1769912,10.092511 13.1769912,9.88105727 C13.1769912,9.66960352 13.0353982,9.59911894 12.8938053,9.59911894 Z" id="Combined-Shape" fill="#000000" fill-rule="nonzero"></path>
        </g>
    </g>
</svg>