<svg width="55" height="36" viewBox="0 0 55 36" xmlns="http://www.w3.org/2000/svg" xmlns:xlink="http://www.w3.org/1999/xlink"><title>icon_scan</title><defs><rect id="a" x="2" y="2" width="51.333" height="30.8" rx="4"/><filter x="-50%" y="-50%" width="200%" height="200%" filterUnits="objectBoundingBox" id="b"><feOffset dy="2" in="SourceAlpha" result="shadowOffsetOuter1"/><feGaussianBlur stdDeviation="2" in="shadowOffsetOuter1" result="shadowBlurOuter1"/><feComposite in="shadowBlurOuter1" in2="SourceAlpha" operator="out" result="shadowBlurOuter1"/><feColorMatrix values="0 0 0 0 0.0117647059 0 0 0 0 0.0117647059 0 0 0 0 0.0117647059 0 0 0 0.2 0" in="shadowBlurOuter1"/></filter><mask id="c" x="0" y="0" width="51.333" height="30.8" fill="#fff"><use xlink:href="#a"/></mask></defs><g fill="none" fill-rule="evenodd"><use fill="#000" filter="url(#b)" xlink:href="#a"/><use stroke="#74B4FC" mask="url(#c)" stroke-width="2" fill="#74B4FC" xlink:href="#a"/><g fill="#FFF"><path d="M18.998 9.87h1v15.267h-1M20.997 9.87h1v15.267h-1M23.995 9.87h1v15.267h-1M27.993 9.87h1v15.267h-1M34.988 9.87h1v15.267h-1M29.99 9.87h1v15.267h-1M31.99 9.87h1v15.267h-1"/><path d="M16 22.752V28h5.496v-.954H17v-4.294M37.986 22.752v4.294H33.49V28h5.496v-5.248M16 7.006v5.25h1V7.96h4.496v-.954M33.49 7.006v.954h4.496v4.295h1v-5.25"/></g></g></svg>