<svg id="Layer_1" xmlns="http://www.w3.org/2000/svg" viewBox="0 0 25 25"><style>.st0{fill:#5A5A5A;} .st1{fill-rule:evenodd;clip-rule:evenodd;fill:#5A5A5A;} .st2{fill-rule:evenodd;clip-rule:evenodd;} .st3{fill:none;stroke:#5A5A5A;stroke-width:1.3;stroke-miterlimit:10;} .st4{fill:none;stroke:#000000;stroke-width:1.2;stroke-miterlimit:10;} .st5{fill:none;stroke:#000000;stroke-width:1.3;stroke-miterlimit:10;} .st6{fill-rule:evenodd;clip-rule:evenodd;fill:#231F20;} .st7{fill:#231F20;} .st8{fill:#010101;}</style><path class="st6" d="M20.2 1.7H4.8c-1.7 0-3 1.3-3 3v15.5c0 1.6 1.3 3 3 3h15.5c1.7 0 3-1.4 3-3V4.7c-.1-1.6-1.4-3-3.1-3zM22 20.1c0 1.1-.9 2-2 2H5c-1.1 0-2-.9-2-2V4.9c0-1.1.9-2 2-2h15c1.1 0 2 .9 2 2v15.2z"/><path class="st6" d="M6.2 14.8c-.5 0-1 .4-1 1 0 .5.4 1 1 1s1-.4 1-1c-.1-.5-.5-1-1-1zM6.8 14.1l.3-5.4H5.2l.3 5.4zM20.6 6.1H10c-.2 0-.4.3-.4.6s.2.6.4.6h10.6c.2 0 .4-.3.4-.6s-.2-.6-.4-.6zM20.6 12.2H10c-.2 0-.4.3-.4.6s.2.6.4.6h10.6c.2 0 .4-.3.4-.6s-.2-.6-.4-.6zM20.6 17.6H10c-.2 0-.4.3-.4.6s.2.6.4.6h10.6c.2 0 .4-.3.4-.6s-.2-.6-.4-.6z"/></svg>