<svg width="16" height="16" viewBox="0 0 16 16" xmlns="http://www.w3.org/2000/svg"><title>time</title><g fill="none" fill-rule="evenodd"><path d="M-1-1h18v18H-1"/><path d="M8 0C3.54 0 0 3.595 0 8.035 0 12.475 3.61 16 8 16c4.46 0 8-3.595 8-7.965C16 3.595 12.46 0 8 0zm0 14.943c-3.823 0-7.01-3.102-7.01-6.978C.99 4.16 4.107.987 8 .987c3.823 0 7.01 3.1 7.01 6.978 0 3.876-3.187 6.978-7.01 6.978zM11.894 8.6h-3.61V3.735c0-.14-.213-.282-.426-.282-.212 0-.424.14-.424.282v5.357c0 .07 0 .14.07.14.07.07.07.07.142.07h4.248c.14 0 .283-.21.283-.422 0-.21-.142-.28-.283-.28z" fill="#000" fill-rule="nonzero"/></g></svg>