<svg id="Layer_1" xmlns="http://www.w3.org/2000/svg" viewBox="0 0 25 25"><style>.st0{fill:#5A5A5A;} .st1{fill-rule:evenodd;clip-rule:evenodd;fill:#5A5A5A;} .st2{fill-rule:evenodd;clip-rule:evenodd;} .st3{fill:none;stroke:#5A5A5A;stroke-width:1.3;stroke-miterlimit:10;} .st4{fill:none;stroke:#000000;stroke-width:1.2;stroke-miterlimit:10;} .st5{fill:none;stroke:#000000;stroke-width:1.3;stroke-miterlimit:10;} .st6{fill-rule:evenodd;clip-rule:evenodd;fill:#231F20;} .st7{fill:#231F20;} .st8{fill:#010101;}</style><path class="st2" d="M20.9 2.7h-5.8c.1-.1.1-.3.1-.4 0-.3-.2-.6-.4-.6h-4.6c-.2 0-.4.3-.4.6 0 .2.1.3.1.4H4.1c-1.7 0-3 1.3-3 3v14.5c0 1.6 1.3 3 3 3h16.8c1.7 0 3-1.4 3-3V5.7c0-1.6-1.4-3-3-3zm1.8 17.4c0 1.1-.9 2-2 2H4.4c-1.1 0-2-.9-2-2V5.9c0-1.1.9-2 2-2h4.8c-.3 0-.4.3-.4.5 0 .4.2.6.4.6h6.6c.2 0 .4-.3.4-.6s-.1-.5-.3-.6h4.8c1.1 0 2 .9 2 2v14.3z"/><path class="st2" d="M17.8 13.3H7.2c-.2 0-.4.3-.4.6s.2.6.4.6h10.6c.2 0 .4-.3.4-.6s-.2-.6-.4-.6zM16.8 17.4H8.2c-.2 0-.4.3-.4.6s.2.6.4.6h8.6c.2 0 .4-.3.4-.6s-.2-.6-.4-.6zM8.2 10.3h8.6c.2 0 .4-.3.4-.6s-.2-.6-.4-.6H8.2c-.2 0-.4.3-.4.6s.2.6.4.6z"/></svg>