<svg id="Layer_1" xmlns="http://www.w3.org/2000/svg" viewBox="0 0 25 25"><style>.st0{fill:#5A5A5A;} .st1{fill-rule:evenodd;clip-rule:evenodd;fill:#5A5A5A;} .st2{fill-rule:evenodd;clip-rule:evenodd;} .st3{fill:none;stroke:#5A5A5A;stroke-width:1.3;stroke-miterlimit:10;} .st4{fill:none;stroke:#000000;stroke-width:1.2;stroke-miterlimit:10;} .st5{fill:none;stroke:#000000;stroke-width:1.3;stroke-miterlimit:10;} .st6{fill-rule:evenodd;clip-rule:evenodd;fill:#231F20;} .st7{fill:#231F20;} .st8{fill:#010101;}</style><path d="M1.8 7.2v13.4c0 1.4 1.2 2.6 2.6 2.6h16.3c1.4 0 2.6-1.2 2.6-2.6V7.2c0-1.4-1.1-2.5-2.5-2.5h-3.5l-.1-.4c-.3-1.4-1.6-2.4-3.1-2.4H11c-1.5 0-2.8 1-3.1 2.4l-.2.4H4.2c-1.3 0-2.4 1.1-2.4 2.5zM8.2 6c.5 0 .5-.4.5-.4l.2-.8c.2-1 1.1-1.6 2.1-1.6h3.1c1 0 1.8.7 2.1 1.6l.2.7c0 .3.2.5.4.5h3.7c.8 0 1.5.4 1.5 1.2v13.2c0 .8-.7 1.5-1.5 1.5h-16c-.9 0-1.5-.7-1.5-1.5v-13C3 6.6 3.6 6 4.4 6h3.8zm0-.2"/><path d="M12.6 18.5c2.5 0 4.5-2 4.5-4.5s-2-4.5-4.5-4.5-4.5 2-4.5 4.5c.1 2.5 2.1 4.5 4.5 4.5zm0-7.7c1.8 0 3.2 1.5 3.2 3.2 0 1.8-1.5 3.2-3.2 3.2S9.4 15.8 9.4 14c0-1.7 1.4-3.2 3.2-3.2zm0-.2"/><ellipse transform="rotate(-45 6.08 8.793)" class="st2" cx="6.1" cy="8.8" rx="1.2" ry="1.2"/></svg>