<svg id="Layer_1" data-name="Layer 1" xmlns="http://www.w3.org/2000/svg" viewBox="0 0 20 20"><defs><style>.cls-1{fill:#010101;}</style></defs><title>favorite</title><path class="cls-1" d="M13.92.5A5.69,5.69,0,0,0,10,2.62,5.74,5.74,0,0,0,6.06.5,5.3,5.3,0,0,0,2.13,2.27a6.51,6.51,0,0,0,0,8.62L10,19.5l7.89-8.62A6.33,6.33,0,0,0,19.5,6.59,6.33,6.33,0,0,0,17.88,2.3,5.24,5.24,0,0,0,13.92.5Zm2.93,9.89L10,17.87,3.14,10.39a6.24,6.24,0,0,1-1.6-3.66A4.66,4.66,0,0,1,2.77,3.47a4.36,4.36,0,0,1,3-1.65,3.9,3.9,0,0,1,3,1.35L10,4.59l1.26-1.38a4,4,0,0,1,3-1.35,4.38,4.38,0,0,1,3.09,1.57,4.91,4.91,0,0,1,1.12,3.33A6.05,6.05,0,0,1,16.86,10.39Z"/></svg>